<svg xmlns="http://www.w3.org/2000/svg" viewBox="0 0 80 80">
  <!-- Top rack unit -->
  <path d="M12 14 L68 14 L68 30 L12 30 Z" fill="#D6E4FF" stroke="#4B7BEC" stroke-width="2.5" stroke-linejoin="round"/>
  <!-- Top LED dot -->
  <path d="M22 22 C22 20.34 23.34 19 25 19 C26.66 19 28 20.34 28 22 C28 23.66 26.66 25 25 25 C23.34 25 22 23.66 22 22 Z" fill="#4B7BEC" stroke="#4B7BEC" stroke-width="0.5"/>
  <!-- Middle rack unit -->
  <path d="M12 32 L68 32 L68 48 L12 48 Z" fill="#D6E4FF" stroke="#4B7BEC" stroke-width="2.5" stroke-linejoin="round"/>
  <!-- Middle LED dot -->
  <path d="M22 40 C22 38.34 23.34 37 25 37 C26.66 37 28 38.34 28 40 C28 41.66 26.66 43 25 43 C23.34 43 22 41.66 22 40 Z" fill="#4B7BEC" stroke="#4B7BEC" stroke-width="0.5"/>
  <!-- Bottom rack unit -->
  <path d="M12 50 L68 50 L68 66 L12 66 Z" fill="#D6E4FF" stroke="#4B7BEC" stroke-width="2.5" stroke-linejoin="round"/>
  <!-- Bottom LED dot -->
  <path d="M22 58 C22 56.34 23.34 55 25 55 C26.66 55 28 56.34 28 58 C28 59.66 26.66 61 25 61 C23.34 61 22 59.66 22 58 Z" fill="#4B7BEC" stroke="#4B7BEC" stroke-width="0.5"/>
</svg>
